<?xml version="1.0" encoding="utf-8"?>
<svg viewBox="14.812 9.707 310.169 51.767" xmlns="http://www.w3.org/2000/svg">
  <path d="M 37.101 20.647 Q 35.157 20.647 31.805 19.428 Q 28.49 18.209 27.652 18.209 Q 22.699 18.209 18.927 23.505 Q 15.46 28.343 15.46 33.525 Q 15.46 38.783 18.851 43.317 Q 22.508 48.155 27.652 48.155 Q 32.262 48.155 34.891 45.26 Q 36.072 43.964 36.072 42.974 L 36.072 41.907 Q 33.481 45.755 29.404 45.755 Q 24.604 45.755 21.441 41.45 Q 18.622 37.487 18.622 32.496 Q 18.622 28.229 20.337 24.267 Q 22.584 19.275 26.28 19.275 Q 28.223 19.275 29.366 20.38 Q 30.509 21.485 30.509 23.428 Q 30.509 24.609 28.909 27.848 Q 27.347 31.163 27.347 32.877 Q 27.347 34.935 28.223 35.944 Q 29.1 36.954 31.157 37.411 Q 31.347 37.449 31.5 37.468 Q 31.652 37.487 31.805 37.487 Q 32.91 37.487 33.9 36.535 Q 34.967 35.582 34.967 34.554 Q 34.967 33.372 34.586 32.82 Q 34.205 32.268 33.024 32.268 Q 32.071 32.268 32.071 33.144 Q 32.071 33.868 32.757 34.363 Q 33.062 34.554 33.367 34.744 Q 33.672 34.935 33.976 35.125 Q 33.214 36.039 32.948 36.268 Q 32.376 36.725 31.538 36.725 Q 30.128 36.725 29.214 35.468 Q 28.376 34.363 28.376 32.877 Q 28.376 29.982 31.5 26.019 Q 34.167 22.552 37.101 20.647 Z" style="fill: rgb(251, 251, 251); white-space: pre; filter: drop-shadow(rgb(0, 0, 0) 1px 1px 1px); mix-blend-mode: darken;"/>
  <path d="M 42.691 47.66 Q 43.643 47.66 47.301 45.717 Q 47.415 46.631 47.758 47.355 L 50.463 47.355 Q 49.434 45.526 49.434 44.345 L 49.434 36.192 Q 49.434 35.811 50.311 34.134 Q 47.605 33.144 45.586 31.429 Q 43.224 31.429 40.481 35.011 Q 37.89 38.478 37.89 40.916 Q 37.89 43.202 39.109 45.298 Q 40.557 47.66 42.691 47.66 Z M 47.072 44.345 Q 44.557 45.107 43.11 45.107 Q 42.043 45.107 41.09 42.821 Q 40.29 40.84 40.29 39.545 Q 40.29 38.173 41.433 35.925 Q 42.614 33.411 43.872 33.411 Q 45.967 35.011 47.072 35.811 Z" style="fill: rgb(251, 251, 251); white-space: pre; filter: drop-shadow(rgb(0, 0, 0) 1px 1px 1px); mix-blend-mode: darken;"/>
  <path d="M 56.567 47.279 Q 55.5 45.831 55.5 38.973 L 55.5 36.344 Q 55.5 35.963 55.519 32.325 Q 55.538 28.686 55.576 21.714 Q 55.271 21.904 54.814 22.304 Q 54.357 22.704 53.747 23.238 Q 53.138 23.771 52.681 24.152 Q 52.223 24.533 51.842 24.724 Q 52.566 25.41 52.795 26.019 Q 52.947 26.438 52.947 27.581 Q 52.947 28.991 52.947 31.086 Q 52.947 33.182 52.909 36.001 Q 52.871 38.821 52.871 40.916 Q 52.871 43.012 52.871 44.421 Q 52.871 44.993 51.842 47.279 Z" style="fill: rgb(251, 251, 251); white-space: pre; filter: drop-shadow(rgb(0, 0, 0) 1px 1px 1px); mix-blend-mode: darken;"/>
  <path d="M 69.436 34.706 Q 69.436 33.144 67.607 32.001 Q 66.007 30.972 64.33 30.972 Q 61.206 30.972 59.263 33.944 Q 57.548 36.535 57.548 39.811 Q 57.548 42.783 59.263 45.069 Q 61.13 47.584 63.987 47.584 Q 66.845 47.584 69.093 45.412 Q 67.492 45.679 66.654 45.812 Q 65.816 45.945 65.664 45.945 Q 62.882 45.945 60.634 41.869 Q 60.749 41.412 65.092 38.44 Q 69.436 35.43 69.436 34.706 Z M 66.388 35.735 Q 66.388 36.497 60.52 40.421 Q 60.292 39.697 60.292 38.592 Q 60.292 32.001 62.959 32.001 Q 64.178 32.001 65.283 33.22 Q 66.388 34.439 66.388 35.735 Z" style="fill: rgb(251, 251, 251); white-space: pre; filter: drop-shadow(rgb(0, 0, 0) 1px 1px 1px); mix-blend-mode: darken;"/>
  <path d="M 80.335 47.431 L 82.735 47.431 L 82.735 31.81 Q 80.03 33.601 78.964 34.211 Q 79.726 35.43 79.878 36.078 Q 80.068 36.84 80.068 38.097 Q 80.068 46.098 76.525 46.098 Q 73.934 46.098 73.934 41.945 Q 73.934 41.716 73.972 41.373 Q 74.011 41.031 74.068 40.65 Q 74.125 40.269 74.163 39.926 Q 74.201 39.583 74.201 39.354 L 74.201 31.81 Q 73.515 32.229 72.677 32.782 Q 71.839 33.334 70.848 34.058 Q 71.61 35.506 71.61 38.287 Q 71.61 38.592 71.591 39.049 Q 71.572 39.507 71.534 40.154 Q 71.496 40.764 71.496 41.221 Q 71.496 41.678 71.496 41.983 Q 71.496 48.117 74.849 48.117 Q 77.135 48.117 78.964 45.45 L 79.497 45.412 Q 79.497 46.441 80.335 47.431 Z" style="fill: rgb(251, 251, 251); white-space: pre; filter: drop-shadow(rgb(0, 0, 0) 1px 1px 1px); mix-blend-mode: darken;"/>
  <path d="M 94.511 44.536 Q 93.291 45.26 92.072 45.26 Q 89.481 45.26 87.805 42.897 Q 86.319 40.802 86.319 38.097 Q 86.319 36.192 87.081 34.325 Q 88.072 31.963 89.71 31.963 Q 90.739 31.963 93.101 33.982 Q 94.434 32.763 94.434 31.963 Q 94.434 30.248 92.072 30.248 Q 88.948 30.248 86.662 33.525 Q 84.566 36.459 84.566 39.773 Q 84.566 42.745 85.976 44.841 Q 87.576 47.279 90.396 47.279 Q 91.996 47.279 92.891 46.65 Q 93.787 46.022 94.511 44.536 Z" style="fill: rgb(251, 251, 251); white-space: pre; filter: drop-shadow(rgb(0, 0, 0) 1px 1px 1px); mix-blend-mode: darken;"/>
  <path d="M 108.795 38.783 Q 108.795 36.23 107.576 34.325 Q 106.166 32.115 103.766 32.115 Q 102.699 32.115 101.518 32.915 Q 99.956 34.02 99.46 34.173 L 99.46 28.115 Q 100.298 25.791 102.47 24.343 Q 103.385 23.847 104.299 23.352 Q 105.213 22.857 106.166 22.362 Q 108.147 21.295 108.795 19.733 L 107.842 19.733 Q 105.785 22.323 102.432 23.619 Q 101.822 23.847 100.222 24.305 Q 98.622 24.762 95.955 25.448 Q 96.755 26.781 96.755 36.763 Q 96.755 46.212 95.765 47.508 L 100.451 47.508 Q 99.46 46.098 99.46 45.183 L 99.46 36.154 Q 99.46 35.316 100.375 34.401 Q 101.327 33.449 102.127 33.449 Q 104.147 33.449 105.366 35.163 Q 106.471 36.725 106.471 38.783 Q 106.471 42.288 104.528 45.984 Q 104.147 46.669 100.946 51.546 Q 99.003 54.48 99.003 56.232 Q 99.003 57.528 99.613 58.48 Q 100.298 59.585 101.556 59.585 Q 102.203 59.585 102.203 58.899 Q 102.203 57.985 100.832 57.337 Q 99.46 56.766 99.46 55.851 Q 99.46 54.327 101.899 51.165 Q 106.052 45.641 106.356 45.222 Q 108.795 41.526 108.795 38.783 Z" style="fill: rgb(251, 251, 251); white-space: pre; filter: drop-shadow(rgb(0, 0, 0) 1px 1px 1px); mix-blend-mode: darken;"/>
  <path d="M 122.171 34.706 Q 122.171 33.144 120.343 32.001 Q 118.742 30.972 117.066 30.972 Q 113.942 30.972 111.999 33.944 Q 110.284 36.535 110.284 39.811 Q 110.284 42.783 111.999 45.069 Q 113.866 47.584 116.723 47.584 Q 119.581 47.584 121.829 45.412 Q 120.228 45.679 119.39 45.812 Q 118.552 45.945 118.4 45.945 Q 115.618 45.945 113.37 41.869 Q 113.485 41.412 117.828 38.44 Q 122.171 35.43 122.171 34.706 Z M 119.123 35.735 Q 119.123 36.497 113.256 40.421 Q 113.027 39.697 113.027 38.592 Q 113.027 32.001 115.694 32.001 Q 116.914 32.001 118.019 33.22 Q 119.123 34.439 119.123 35.735 Z" style="fill: rgb(251, 251, 251); white-space: pre; filter: drop-shadow(rgb(0, 0, 0) 1px 1px 1px); mix-blend-mode: darken;"/>
  <path d="M 176.841 47.736 Q 177.603 47.736 177.603 46.822 Q 177.603 44.421 175.545 44.421 Q 174.364 44.421 172.345 45.984 Q 171.354 46.746 170.84 47.127 Q 170.325 47.508 170.325 47.508 Q 169.868 47.508 169.411 47.26 Q 168.954 47.012 168.611 46.612 Q 168.268 46.212 168.058 45.717 Q 167.849 45.222 167.849 44.764 Q 167.849 43.05 169.83 39.888 Q 171.659 36.992 172.592 35.525 Q 173.526 34.058 173.564 33.982 Q 175.545 30.286 175.545 27.315 Q 175.545 23.809 173.831 21.219 Q 171.888 18.285 168.535 18.285 Q 166.211 18.285 164.687 19.314 Q 163.848 19.847 162.21 21.6 Q 160.648 23.2 159.353 23.886 Q 158.514 22.095 157.981 21.085 Q 157.448 20.076 157.257 19.809 Q 155.847 17.942 153.257 17.942 Q 151.656 17.942 148.494 20.304 Q 147.084 21.409 145.713 22.533 Q 144.341 23.657 142.932 24.762 Q 139.807 27.2 138.321 27.315 Q 138.017 27.353 137.559 27.353 Q 137.14 27.353 136.569 27.353 Q 136.074 27.353 135.883 27.315 L 135.883 28.762 Q 137.598 28.762 138.436 28.572 Q 139.388 28.267 140.684 27.315 Q 142.551 27.276 142.551 29.562 Q 142.551 29.753 142.493 30.077 Q 142.436 30.401 142.341 30.744 Q 142.246 31.086 142.189 31.391 Q 142.131 31.696 142.131 31.887 L 142.131 46.86 Q 142.131 50.632 140.722 53.413 Q 138.931 56.956 135.54 56.956 Q 134.283 56.956 132.987 56.385 Q 131.578 55.851 131.273 55.851 Q 130.32 55.851 130.32 57.109 Q 130.32 58.328 131.235 58.328 Q 131.197 58.328 131.349 58.309 Q 131.502 58.29 131.806 58.252 Q 133.864 58.061 135.197 57.833 Q 136.531 57.604 137.14 57.414 Q 139.198 56.69 141.522 54.137 Q 145.256 49.984 145.256 46.86 L 145.256 33.639 Q 145.256 28.038 146.018 25.181 Q 147.465 20.076 151.542 20.076 Q 152.38 20.076 153.123 20.361 Q 153.866 20.647 154.438 21.161 Q 155.009 21.676 155.333 22.381 Q 155.657 23.085 155.657 23.886 L 155.657 43.355 Q 155.657 44.879 154.438 45.564 Q 153.866 45.869 151.809 46.288 Q 150.094 46.631 149.447 47.203 L 149.447 48.231 L 150.475 48.231 Q 151.542 46.86 154.628 46.86 Q 155.466 46.86 157.143 47.203 Q 158.895 47.508 159.657 47.508 Q 162.324 47.508 164.725 46.86 L 164.725 45.45 L 163.696 45.45 Q 162.667 46.517 162.172 46.517 Q 158.819 46.517 158.819 43.698 L 158.819 28.762 Q 158.819 25.791 161.334 23.276 Q 163.887 20.761 166.858 20.761 Q 172.04 20.761 172.04 28.077 Q 172.04 31.01 170.706 34.325 Q 170.059 35.62 169.449 36.916 Q 168.84 38.211 168.192 39.507 Q 166.858 42.402 166.858 44.421 Q 166.858 48.231 169.983 48.231 Q 172.497 48.231 174.135 46.479 Q 174.212 46.479 174.402 46.441 Q 174.593 46.403 174.707 46.403 Q 175.317 46.403 175.888 47.508 Q 176.383 47.736 176.841 47.736 Z" style="fill: rgb(251, 251, 251); white-space: pre; filter: drop-shadow(rgb(0, 0, 0) 1px 1px 1px); mix-blend-mode: darken;"/>
  <path d="M 190.555 34.706 Q 190.555 33.144 188.726 32.001 Q 187.126 30.972 185.45 30.972 Q 182.326 30.972 180.382 33.944 Q 178.668 36.535 178.668 39.811 Q 178.668 42.783 180.382 45.069 Q 182.249 47.584 185.107 47.584 Q 187.964 47.584 190.212 45.412 Q 188.612 45.679 187.774 45.812 Q 186.936 45.945 186.783 45.945 Q 184.002 45.945 181.754 41.869 Q 181.868 41.412 186.212 38.44 Q 190.555 35.43 190.555 34.706 Z M 187.507 35.735 Q 187.507 36.497 181.64 40.421 Q 181.411 39.697 181.411 38.592 Q 181.411 32.001 184.078 32.001 Q 185.297 32.001 186.402 33.22 Q 187.507 34.439 187.507 35.735 Z" style="fill: rgb(251, 251, 251); white-space: pre; filter: drop-shadow(rgb(0, 0, 0) 1px 1px 1px); mix-blend-mode: darken;"/>
  <path d="M 199.245 32.115 L 199.245 31.582 L 196.73 31.582 Q 196.616 29.943 196.616 28.915 Q 196.616 26.133 197.302 22.857 L 193.073 27.124 L 194.14 28.534 L 194.178 31.582 L 191.549 31.582 L 191.549 32.191 L 194.025 32.191 Q 194.101 34.287 194.14 36.878 Q 194.178 39.468 194.178 42.593 Q 194.178 45.907 192.654 47.317 L 197.873 47.317 Q 196.578 46.288 196.578 42.821 Q 196.578 41.945 196.597 40.611 Q 196.616 39.278 196.654 37.487 Q 196.692 35.658 196.711 34.344 Q 196.73 33.03 196.73 32.153 Z" style="fill: rgb(251, 251, 251); white-space: pre; filter: drop-shadow(rgb(0, 0, 0) 1px 1px 1px); mix-blend-mode: darken;"/>
  <path d="M 204.951 47.66 Q 205.903 47.66 209.561 45.717 Q 209.675 46.631 210.018 47.355 L 212.723 47.355 Q 211.694 45.526 211.694 44.345 L 211.694 36.192 Q 211.694 35.811 212.571 34.134 Q 209.866 33.144 207.846 31.429 Q 205.484 31.429 202.741 35.011 Q 200.15 38.478 200.15 40.916 Q 200.15 43.202 201.369 45.298 Q 202.817 47.66 204.951 47.66 Z M 209.332 44.345 Q 206.818 45.107 205.37 45.107 Q 204.303 45.107 203.351 42.821 Q 202.55 40.84 202.55 39.545 Q 202.55 38.173 203.693 35.925 Q 204.875 33.411 206.132 33.411 Q 208.227 35.011 209.332 35.811 Z" style="fill: rgb(251, 251, 251); white-space: pre; filter: drop-shadow(rgb(0, 0, 0) 1px 1px 1px); mix-blend-mode: darken;"/>
  <path d="M 218.827 47.279 Q 217.76 45.831 217.76 38.973 L 217.76 36.344 Q 217.76 35.963 217.779 32.325 Q 217.798 28.686 217.836 21.714 Q 217.531 21.904 217.074 22.304 Q 216.617 22.704 216.007 23.238 Q 215.398 23.771 214.941 24.152 Q 214.483 24.533 214.102 24.724 Q 214.826 25.41 215.055 26.019 Q 215.207 26.438 215.207 27.581 Q 215.207 28.991 215.207 31.086 Q 215.207 33.182 215.169 36.001 Q 215.131 38.821 215.131 40.916 Q 215.131 43.012 215.131 44.421 Q 215.131 44.993 214.102 47.279 Z" style="fill: rgb(251, 251, 251); white-space: pre; filter: drop-shadow(rgb(0, 0, 0) 1px 1px 1px); mix-blend-mode: darken;"/>
  <path d="M 238.823 47.469 L 252.387 47.469 Q 252.578 47.736 252.768 47.965 Q 252.959 48.193 253.149 48.422 Q 253.644 49.032 254.14 49.032 Q 254.711 49.032 254.711 48.384 Q 254.711 47.508 252.73 47.127 Q 249.453 46.403 249.072 46.212 Q 247.091 45.412 247.091 43.698 L 247.091 22.323 Q 247.739 21.676 248.101 21.352 Q 248.463 21.028 248.539 20.952 Q 249.377 20.342 250.368 20.342 Q 251.015 20.342 251.435 20.323 Q 251.854 20.304 252.044 20.266 Q 252.349 21.219 252.539 21.752 Q 252.73 22.285 252.806 22.438 Q 253.225 23.2 254.483 24.076 Q 252.768 26.553 252.768 31.277 Q 252.768 33.563 253.835 33.563 Q 254.902 33.563 254.902 32.229 Q 254.902 31.429 254.14 30.134 Q 253.416 28.839 253.416 28.648 Q 253.416 26.362 258.674 19.847 L 232.537 19.847 Q 233.375 20.914 234.175 21.942 Q 234.975 22.971 235.775 24.038 Q 237.795 26.972 237.795 28.648 Q 237.795 28.8 237.033 30.134 Q 236.309 31.353 236.309 32.191 Q 236.309 33.563 237.338 33.563 Q 238.138 33.563 238.366 32.763 Q 238.404 32.572 238.423 32.191 Q 238.442 31.81 238.442 31.277 Q 238.442 26.553 236.728 24.076 Q 238.633 22.781 239.166 20.266 Q 239.852 20.342 240.538 20.38 Q 241.224 20.418 241.871 20.495 Q 242.405 20.685 244.119 22.323 L 244.119 43.698 Q 244.119 45.412 242.138 46.212 Q 241.719 46.403 238.442 47.127 Q 236.499 47.546 236.499 48.384 Q 236.499 49.032 237.071 49.032 Q 237.909 49.032 238.823 47.469 Z" style="fill: rgb(251, 251, 251); white-space: pre; filter: drop-shadow(rgb(0, 0, 0) 1px 1px 1px); mix-blend-mode: darken;"/>
  <path d="M 270.656 39.049 Q 270.656 35.811 269.094 33.22 Q 267.265 30.134 264.256 30.134 Q 261.017 30.134 259.15 33.715 Q 257.512 36.649 257.512 40.154 Q 257.512 43.164 258.998 45.374 Q 260.674 47.85 263.57 47.85 Q 266.961 47.85 268.904 45.069 Q 270.656 42.631 270.656 39.049 Z M 268.523 41.564 Q 268.523 46.174 265.322 46.174 Q 262.77 46.174 261.055 42.669 Q 259.645 39.811 259.645 36.878 Q 259.645 35.163 260.369 33.868 Q 261.208 32.268 262.846 32.268 Q 265.551 32.268 267.227 35.697 Q 268.523 38.402 268.523 41.564 Z" style="fill: rgb(251, 251, 251); white-space: pre; filter: drop-shadow(rgb(0, 0, 0) 1px 1px 1px); mix-blend-mode: darken;"/>
  <path d="M 279.777 47.431 L 282.178 47.431 L 282.178 31.81 Q 279.472 33.601 278.406 34.211 Q 279.168 35.43 279.32 36.078 Q 279.511 36.84 279.511 38.097 Q 279.511 46.098 275.967 46.098 Q 273.376 46.098 273.376 41.945 Q 273.376 41.716 273.415 41.373 Q 273.453 41.031 273.51 40.65 Q 273.567 40.269 273.605 39.926 Q 273.643 39.583 273.643 39.354 L 273.643 31.81 Q 272.957 32.229 272.119 32.782 Q 271.281 33.334 270.29 34.058 Q 271.052 35.506 271.052 38.287 Q 271.052 38.592 271.033 39.049 Q 271.014 39.507 270.976 40.154 Q 270.938 40.764 270.938 41.221 Q 270.938 41.678 270.938 41.983 Q 270.938 48.117 274.291 48.117 Q 276.577 48.117 278.406 45.45 L 278.939 45.412 Q 278.939 46.441 279.777 47.431 Z" style="fill: rgb(251, 251, 251); white-space: pre; filter: drop-shadow(rgb(0, 0, 0) 1px 1px 1px); mix-blend-mode: darken;"/>
  <path d="M 295.057 33.068 Q 295.057 32.115 294.467 31.525 Q 293.876 30.934 292.924 30.934 Q 291.705 30.934 290.485 31.887 Q 289.952 32.229 288.542 33.715 L 288.657 30.591 Q 286.561 32.687 285.151 33.411 Q 286.142 35.582 286.142 36.84 L 286.142 39.621 Q 286.142 44.612 284.389 47.317 Q 287.133 47.317 289.723 47.431 Q 288.885 46.479 288.695 46.098 Q 288.238 45.374 288.238 44.46 Q 288.238 38.325 288.58 35.811 Q 288.961 33.068 291.514 33.068 Q 292.467 33.068 293.457 34.858 Q 295.057 33.715 295.057 33.068 Z" style="fill: rgb(251, 251, 251); white-space: pre; filter: drop-shadow(rgb(0, 0, 0) 1px 1px 1px); mix-blend-mode: darken;"/>
  <path d="M 323.401 16.913 Q 324.849 16.913 324.849 16.189 Q 324.849 15.465 323.82 15.465 Q 323.172 15.465 322.753 15.713 Q 322.334 15.961 321.915 16.227 Q 321.267 16.57 320.81 16.818 Q 320.353 17.066 320.048 17.218 Q 319.629 17.599 319.248 17.98 Q 318.867 18.361 318.448 18.742 Q 317.381 19.695 316.543 19.695 Q 316.086 19.695 313.304 18.285 Q 310.523 16.875 308.694 16.875 Q 305.151 16.875 302.674 19.199 Q 300.198 21.561 300.198 25.029 Q 300.198 28.458 302.789 30.705 Q 304.541 32.229 308.466 33.792 Q 311.933 35.087 311.933 35.697 Q 311.933 36.916 310.218 40.802 Q 308.694 44.231 307.704 45.869 Q 306.713 45.564 306.046 45.317 Q 305.38 45.069 305.075 44.917 Q 303.322 44.079 302.522 41.64 Q 302.217 40.764 301.608 37.03 Q 301.341 35.582 300.979 34.534 Q 300.617 33.487 300.198 32.839 L 298.712 32.839 Q 298.864 33.372 299.855 35.239 Q 300.541 36.573 300.541 37.868 Q 300.541 45.717 295.931 49.489 L 295.931 50.556 Q 296.959 50.06 297.836 49.07 Q 298.636 48.155 299.131 47.85 Q 300.084 47.355 301.951 47.355 L 307.132 47.355 Q 305.608 51.508 303.703 54.137 Q 300.922 58.061 297.721 58.061 Q 297.569 58.061 296.769 57.718 Q 295.931 57.414 295.626 57.414 Q 295.169 57.414 294.635 57.775 Q 294.102 58.137 294.102 58.557 Q 294.102 59.014 294.578 59.338 Q 295.054 59.661 295.55 59.661 Q 295.816 59.661 296.407 59.547 Q 296.998 59.433 297.302 59.433 Q 300.198 59.433 302.522 57.109 Q 303.246 56.385 304.103 55.185 Q 304.96 53.985 305.951 52.27 Q 307.589 49.489 308.389 47.622 Q 309.037 47.698 309.723 47.755 Q 310.409 47.812 311.095 47.812 Q 315.971 47.812 318.181 46.174 Q 320.772 44.231 320.772 39.583 Q 320.772 33.83 314.371 31.086 Q 314.79 29.639 315.19 28.191 Q 315.59 26.743 316.009 25.295 Q 317.229 21.561 318.448 20.076 Q 319.096 19.275 319.477 18.799 Q 319.858 18.323 320.01 18.171 Q 321.115 16.913 321.839 16.875 L 322.563 16.875 L 322.563 16.837 Q 322.753 16.875 322.982 16.894 Q 323.21 16.913 323.401 16.913 Z M 314.028 25.791 Q 314.028 26.781 313.647 28.153 Q 313.228 29.639 312.771 30.363 Q 310.104 29.296 308.561 28.648 Q 307.018 28 306.561 27.772 Q 302.293 25.562 302.293 23.2 Q 302.293 21.409 304.046 19.885 Q 305.837 18.323 307.666 18.323 Q 310.637 18.323 312.428 20.609 Q 314.028 22.666 314.028 25.791 Z M 318.638 41.754 Q 318.638 44.193 316.2 45.564 Q 314.219 46.746 311.552 46.746 Q 310.904 46.746 308.885 46.212 Q 312.39 39.697 313.304 36.078 Q 315.019 37.144 315.876 37.697 Q 316.733 38.249 316.81 38.287 Q 318.638 39.849 318.638 41.754 Z" style="fill: rgb(251, 251, 251); white-space: pre; filter: drop-shadow(rgb(0, 0, 0) 1px 1px 1px); mix-blend-mode: darken;"/>
</svg>